#define close_active_width 16
#define close_active_height 16
static unsigned char close_active_bits[] = {
   0xc0, 0x03, 0xf0, 0x0f, 0xf8, 0x1f, 0xfc, 0x3f, 0xce, 0x73, 0x8e, 0x71,
   0x1f, 0xf8, 0x3f, 0xfc, 0x3f, 0xfc, 0x1f, 0xf8, 0x8e, 0x71, 0xce, 0x73,
   0xfc, 0x3f, 0xf8, 0x1f, 0xf0, 0x0f, 0xc0, 0x03 };
